<?xml version="1.0" encoding="UTF-8"?>
<!DOCTYPE svg PUBLIC "-//W3C//DTD SVG 1.1//EN" "http://www.w3.org/Graphics/SVG/1.1/DTD/svg11.dtd">
<svg xmlns="http://www.w3.org/2000/svg" version="1.1" width="1024px" height="1024px" style="shape-rendering:geometricPrecision; text-rendering:geometricPrecision; image-rendering:optimizeQuality; fill-rule:evenodd; clip-rule:evenodd" xmlns:xlink="http://www.w3.org/1999/xlink">
<g><path style="opacity:1" fill="#dbdcdf" d="M -0.5,-0.5 C 161.167,-0.5 322.833,-0.5 484.5,-0.5C 326.078,11.6144 198.245,79.9477 101,204.5C 40.5091,286.521 6.67576,378.521 -0.5,480.5C -0.5,320.167 -0.5,159.833 -0.5,-0.5 Z"/></g>
<g><path style="opacity:1" fill="#f3cb78" d="M 484.5,-0.5 C 502.5,-0.5 520.5,-0.5 538.5,-0.5C 713.26,13.6252 848.76,93.2919 945,238.5C 992.81,315.428 1018.98,399.095 1023.5,489.5C 1023.5,501.833 1023.5,514.167 1023.5,526.5C 1014.6,694.841 942.929,829.008 808.5,929C 725.363,987.102 633.03,1018.6 531.5,1023.5C 516.5,1023.5 501.5,1023.5 486.5,1023.5C 349.416,1014.53 233.249,960.867 138,862.5C 50.5784,767.467 4.41178,655.133 -0.5,525.5C -0.5,510.5 -0.5,495.5 -0.5,480.5C 6.67576,378.521 40.5091,286.521 101,204.5C 198.245,79.9477 326.078,11.6144 484.5,-0.5 Z"/></g>
<g><path style="opacity:1" fill="#dbdbde" d="M 538.5,-0.5 C 700.167,-0.5 861.833,-0.5 1023.5,-0.5C 1023.5,162.833 1023.5,326.167 1023.5,489.5C 1018.98,399.095 992.81,315.428 945,238.5C 848.76,93.2919 713.26,13.6252 538.5,-0.5 Z"/></g>
<g><path style="opacity:1" fill="#dbdcde" d="M 1023.5,526.5 C 1023.5,692.167 1023.5,857.833 1023.5,1023.5C 859.5,1023.5 695.5,1023.5 531.5,1023.5C 633.03,1018.6 725.363,987.102 808.5,929C 942.929,829.008 1014.6,694.841 1023.5,526.5 Z"/></g>
<g><path style="opacity:1" fill="#dadbdf" d="M -0.5,525.5 C 4.41178,655.133 50.5784,767.467 138,862.5C 233.249,960.867 349.416,1014.53 486.5,1023.5C 324.167,1023.5 161.833,1023.5 -0.5,1023.5C -0.5,857.5 -0.5,691.5 -0.5,525.5 Z"/></g>
<g><path style="opacity:1" fill="#263a46" d="M 492.5,141.5 C 524.433,139.477 553.099,147.977 578.5,167C 583.367,171.532 587.867,176.366 592,181.5C 607.431,170.414 623.931,168.581 641.5,176C 654.736,181.568 665.236,190.401 673,202.5C 677.452,211.855 681.119,221.522 684,231.5C 697.868,239.698 709.534,250.365 719,263.5C 726.613,277.497 730.28,292.497 730,308.5C 731.508,315.84 736.008,319.84 743.5,320.5C 747.097,319.411 750.763,318.745 754.5,318.5C 755.984,327.59 752.65,334.09 744.5,338C 740.58,339.313 736.58,340.313 732.5,341C 751.006,360.204 753.506,381.37 740,404.5C 738.667,405.833 737.333,407.167 736,408.5C 739.456,424.524 737.456,439.857 730,454.5C 726.199,459.967 722.032,465.134 717.5,470C 718.429,472.597 720.096,474.597 722.5,476C 736.17,478.753 737.17,484.086 725.5,492C 719.877,495.145 713.877,497.145 707.5,498C 730.318,507.808 744.818,524.642 751,548.5C 751.667,553.5 751.667,558.5 751,563.5C 749.353,567.422 748.353,571.422 748,575.5C 778.571,597.084 800.571,625.417 814,660.5C 828.147,697.901 834.814,736.567 834,776.5C 833.032,792.012 829.032,806.679 822,820.5C 819.217,824.951 816.05,829.117 812.5,833C 808.5,835.667 804.5,838.333 800.5,841C 814.617,841.11 828.617,842.277 842.5,844.5C 843.833,845.5 843.833,846.5 842.5,847.5C 837.689,849.453 832.689,850.619 827.5,851C 769.847,852.746 712.18,853.746 654.5,854C 605.856,856.241 557.19,857.741 508.5,858.5C 426.486,857.75 344.486,856.25 262.5,854C 242.775,853.029 223.108,851.362 203.5,849C 198.027,847.612 197.36,845.278 201.5,842C 217.472,840.821 233.472,840.154 249.5,840C 254.35,839.536 255.684,837.036 253.5,832.5C 247.176,829.216 242.676,824.216 240,817.5C 236.263,806.955 232.929,796.289 230,785.5C 218.998,742.159 207.998,698.826 197,655.5C 194.383,639.886 200.55,629.72 215.5,625C 249.152,623.802 282.819,623.135 316.5,623C 333.835,593.992 355.835,568.992 382.5,548C 362.397,529.965 350.564,507.465 347,480.5C 344.204,456.449 345.371,432.616 350.5,409C 343.061,403.896 336.561,397.73 331,390.5C 326.203,381.489 324.703,371.989 326.5,362C 321.863,359.011 317.196,356.011 312.5,353C 304.879,344.257 302.045,334.09 304,322.5C 306.505,315.989 309.672,309.822 313.5,304C 310.541,295.655 310.874,287.489 314.5,279.5C 309.034,268.679 309.201,258.012 315,247.5C 316.444,245.845 318.278,245.178 320.5,245.5C 320.615,251.233 322.949,255.733 327.5,259C 334.222,259.939 337.389,257.106 337,250.5C 330.808,242.183 328.808,232.849 331,222.5C 338.032,205.138 350.532,193.638 368.5,188C 403.391,177.72 437.058,164.386 469.5,148C 477.202,145.503 484.868,143.336 492.5,141.5 Z"/></g>
<g><path style="opacity:1" fill="#eb5f3c" d="M 676.5,843.5 C 669.468,843.83 662.468,843.497 655.5,842.5C 672.469,829.759 677.969,813.092 672,792.5C 670.663,788.493 668.83,784.827 666.5,781.5C 661.228,773.396 654.228,767.23 645.5,763C 648.743,760.122 652.576,758.955 657,759.5C 669.968,760.453 679.968,766.453 687,777.5C 696.735,794.53 698.068,812.197 691,830.5C 687.191,836.151 682.358,840.484 676.5,843.5 Z"/></g>
<g><path style="opacity:1" fill="#f8b585" d="M 603.5,757.5 C 616.689,760.422 629.022,765.589 640.5,773C 643,775.5 645.5,778 648,780.5C 648.399,780.272 648.565,779.938 648.5,779.5C 655.793,788.884 658.959,799.55 658,811.5C 655.832,817.18 651.665,820.347 645.5,821C 642.833,821.667 640.167,821.667 637.5,821C 627.753,816.787 618.086,812.62 608.5,808.5C 611.945,806.274 615.611,804.274 619.5,802.5C 620.386,801.675 620.719,800.675 620.5,799.5C 612.841,798.775 605.841,800.608 599.5,805C 594.533,808.966 589.866,813.299 585.5,818C 581.5,818.667 577.5,818.667 573.5,818C 571.604,816.192 571.104,814.025 572,811.5C 574.398,805.871 577.898,801.037 582.5,797C 589.838,791.996 597.504,787.496 605.5,783.5C 599.184,781.899 593.184,782.732 587.5,786C 575.54,792.621 567.206,802.288 562.5,815C 554.836,818.65 550.503,816.317 549.5,808C 552.071,799.087 556.738,791.421 563.5,785C 569.026,780.64 574.693,776.474 580.5,772.5C 579.667,772.167 578.833,771.833 578,771.5C 558.39,777.442 545.89,790.276 540.5,810C 530.285,813.788 526.119,810.288 528,799.5C 537.081,776.091 553.915,761.591 578.5,756C 586.94,755.153 595.273,755.653 603.5,757.5 Z"/></g>
<g><path style="opacity:1" fill="#273d47" d="M 441.5,643.5 C 443.903,643.393 445.736,644.393 447,646.5C 450.115,651.844 452.448,657.511 454,663.5C 467.202,716.309 480.702,768.975 494.5,821.5C 493.006,824.734 491.173,825.067 489,822.5C 473.002,762.838 457.168,703.171 441.5,643.5 Z"/></g>
<g><path style="opacity:1" fill="#2b3a45" d="M 694.5,839.5 C 694.167,839.5 693.833,839.5 693.5,839.5C 692.624,839.631 691.957,839.298 691.5,838.5C 692.929,836.669 693.429,834.669 693,832.5C 690.475,834.05 688.641,836.217 687.5,839C 684.271,841.616 680.604,843.116 676.5,843.5C 682.358,840.484 687.191,836.151 691,830.5C 698.068,812.197 696.735,794.53 687,777.5C 679.968,766.453 669.968,760.453 657,759.5C 652.576,758.955 648.743,760.122 645.5,763C 654.228,767.23 661.228,773.396 666.5,781.5C 661.895,778.162 657.562,774.329 653.5,770C 652.234,769.691 651.067,769.191 650,768.5C 652.164,771.998 655.164,774.998 659,777.5C 659.747,781.132 661.58,783.966 664.5,786C 663.663,787.011 663.33,788.178 663.5,789.5C 661.606,786.061 659.44,782.728 657,779.5C 653.5,776.667 650,773.833 646.5,771C 645.668,770.312 645.002,770.479 644.5,771.5C 646.03,774.104 647.363,776.771 648.5,779.5C 648.565,779.938 648.399,780.272 648,780.5C 645.5,778 643,775.5 640.5,773C 629.022,765.589 616.689,760.422 603.5,757.5C 606.91,757.543 610.243,757.043 613.5,756C 615.426,755.578 616.426,754.411 616.5,752.5C 622.923,754.876 629.256,757.542 635.5,760.5C 643.042,753.709 651.875,750.375 662,750.5C 659.073,741.942 656.073,733.276 653,724.5C 651.107,719.233 650.607,713.9 651.5,708.5C 657.061,720.622 662.894,732.622 669,744.5C 667.885,729.85 666.718,715.183 665.5,700.5C 665.278,689.95 666.611,679.617 669.5,669.5C 670.167,677.833 670.833,686.167 671.5,694.5C 671.969,707.263 673.302,719.929 675.5,732.5C 683.655,696.017 700.321,664.183 725.5,637C 735.284,627.772 746.618,621.105 759.5,617C 762.227,616.182 764.894,616.348 767.5,617.5C 766.636,619.197 765.303,620.363 763.5,621C 753.051,623.558 743.717,628.225 735.5,635C 704.463,664.574 686.296,700.741 681,743.5C 698.59,726.525 719.424,720.025 743.5,724C 725.505,726.443 708.505,732.109 692.5,741C 715.723,736.377 737.39,740.377 757.5,753C 760.207,754.864 761.041,757.364 760,760.5C 758.274,761.576 756.441,761.743 754.5,761C 727.978,746.666 700.644,744.833 672.5,755.5C 694.929,770.029 704.762,790.696 702,817.5C 700.388,825.17 697.888,832.503 694.5,839.5 Z"/></g>
<g><path style="opacity:1" fill="#38cacc" d="M 448.5,639.5 C 450.716,640.203 452.549,641.536 454,643.5C 456.277,648.387 458.277,653.387 460,658.5C 473.529,710.948 487.529,763.281 502,815.5C 502.885,818.538 502.385,821.205 500.5,823.5C 499.001,821.547 499.335,819.88 501.5,818.5C 500.672,817.585 499.672,816.919 498.5,816.5C 496.918,818.015 495.584,819.681 494.5,821.5C 480.702,768.975 467.202,716.309 454,663.5C 452.448,657.511 450.115,651.844 447,646.5C 445.736,644.393 443.903,643.393 441.5,643.5C 443.833,642.167 446.167,640.833 448.5,639.5 Z"/></g>
<g><path style="opacity:1" fill="#3bd1d0" d="M 448.5,639.5 C 446.167,640.833 443.833,642.167 441.5,643.5C 457.168,703.171 473.002,762.838 489,822.5C 491.173,825.067 493.006,824.734 494.5,821.5C 495.584,819.681 496.918,818.015 498.5,816.5C 499.672,816.919 500.672,817.585 501.5,818.5C 499.335,819.88 499.001,821.547 500.5,823.5C 499.71,824.794 498.71,825.961 497.5,827C 419.15,827.494 340.816,826.494 262.5,824C 260.112,823.697 257.945,822.863 256,821.5C 251.474,812.589 248.141,803.256 246,793.5C 232.917,746.834 220.917,699.834 210,652.5C 209.204,648.245 209.371,644.079 210.5,640C 211.833,639.333 213.167,638.667 214.5,638C 287.833,637.333 361.167,637.333 434.5,638C 439.215,638.281 443.882,638.781 448.5,639.5 Z"/></g>
<g><path style="opacity:1" fill="#273e49" d="M 351.5,701.5 C 355.099,700.938 357.099,702.438 357.5,706C 351.874,731.798 346.374,757.631 341,783.5C 339.99,786.448 338.157,787.114 335.5,785.5C 334.34,781.541 334.173,777.541 335,773.5C 339.885,749.299 345.385,725.299 351.5,701.5 Z"/></g>
<g><path style="opacity:1" fill="#273e49" d="M 314.5,730.5 C 319.325,730.488 321.491,732.821 321,737.5C 316.586,740.624 312.086,743.624 307.5,746.5C 312.159,750.99 316.992,755.323 322,759.5C 323.261,765.08 321.094,766.913 315.5,765C 310.124,759.956 304.458,755.289 298.5,751C 295.638,749.214 294.972,746.881 296.5,744C 302.967,740.021 308.967,735.521 314.5,730.5 Z"/></g>
<g><path style="opacity:1" fill="#263d47" d="M 370.5,726.5 C 373.14,726.954 375.473,728.121 377.5,730C 382.167,734 386.833,738 391.5,742C 393.448,743.439 394.781,745.272 395.5,747.5C 388.792,756.542 380.792,764.208 371.5,770.5C 367.293,769.024 366.46,766.358 369,762.5C 374.015,757.652 378.848,752.652 383.5,747.5C 378.508,742.677 373.342,738.01 368,733.5C 366.916,730.341 367.75,728.008 370.5,726.5 Z"/></g>
<g><path style="opacity:1" fill="#283c48" d="M 277.5,699.5 C 290.837,699.333 304.171,699.5 317.5,700C 320.399,703.156 320.065,705.822 316.5,708C 303.833,708.667 291.167,708.667 278.5,708C 276.265,705.415 275.931,702.582 277.5,699.5 Z"/></g>
<g><path style="opacity:1" fill="#263b44" d="M 233.5,659.5 C 246.297,667.106 258.464,675.773 270,685.5C 270.738,688.212 270.071,690.545 268,692.5C 261.531,697.968 255.364,703.801 249.5,710C 244.333,711.5 242.5,709.667 244,704.5C 249.533,699.302 254.7,693.802 259.5,688C 250.425,680.38 241.259,672.88 232,665.5C 231.252,663.16 231.752,661.16 233.5,659.5 Z"/></g>
<g><path style="opacity:1" fill="#2b3a45" d="M 614.5,316.5 C 615.639,328.749 619.472,340.082 626,350.5C 638.151,359.635 644.651,371.802 645.5,387C 644.118,397.19 644.284,407.356 646,417.5C 647.029,420.875 649.196,422.042 652.5,421C 655.446,420.194 658.112,418.861 660.5,417C 665.113,408.945 669.613,400.779 674,392.5C 686.713,378.298 699.713,377.964 713,391.5C 718.21,401.887 719.877,412.887 718,424.5C 715.345,441.314 707.845,455.48 695.5,467C 690.699,470.435 685.366,472.601 679.5,473.5C 676.991,482.195 673.991,490.695 670.5,499C 672.233,500.189 673.9,501.356 675.5,502.5C 674.448,502.351 673.448,502.517 672.5,503C 673.925,504.362 674.758,505.862 675,507.5C 667.918,510.617 668.418,511.617 676.5,510.5C 669.937,533.221 657.271,551.721 638.5,566C 604.876,589.307 567.876,604.64 527.5,612C 508.178,614.959 489.178,613.626 470.5,608C 456.245,603.07 444.912,594.403 436.5,582C 428.343,578.088 420.343,573.922 412.5,569.5C 412.167,569.833 411.833,570.167 411.5,570.5C 420.102,591.936 434.769,607.769 455.5,618C 471.158,626.248 487.825,630.081 505.5,629.5C 526.914,629.752 547.581,625.919 567.5,618C 603.611,605.113 637.278,587.779 668.5,566C 677.448,558.058 685.281,549.225 692,539.5C 694.883,534.401 697.217,529.067 699,523.5C 699.789,521.288 699.622,519.288 698.5,517.5C 698.56,516.957 698.893,516.624 699.5,516.5C 701.865,520.755 702.865,520.421 702.5,515.5C 703.753,527.263 700.586,537.93 693,547.5C 676.725,567.773 656.892,583.606 633.5,595C 600.395,613.145 565.395,626.145 528.5,634C 492.4,639.892 460.067,631.559 431.5,609C 417.89,597.942 409.89,583.775 407.5,566.5C 402.362,563.195 397.362,559.695 392.5,556C 390.735,555.36 389.068,555.527 387.5,556.5C 387.082,555.778 386.416,555.278 385.5,555C 388.167,554.333 390.833,554.333 393.5,555C 397.583,557.709 401.75,560.209 406,562.5C 406.089,560.887 405.255,559.72 403.5,559C 403.968,557.178 404.301,555.011 404.5,552.5C 407.589,554.925 410.922,556.925 414.5,558.5C 448.706,583.803 487.039,593.97 529.5,589C 544.139,586.112 558.473,582.446 572.5,578C 554.905,589.309 535.572,595.642 514.5,597C 492.453,597.922 471.12,594.422 450.5,586.5C 459.499,595.51 470.832,601.343 484.5,604C 515.159,608.371 544.825,604.705 573.5,593C 596.941,583.122 618.607,570.455 638.5,555C 645.754,547.75 652.254,539.917 658,531.5C 660.296,526.939 661.963,522.272 663,517.5C 657.573,524.931 651.407,531.764 644.5,538C 642.945,539.289 641.279,539.956 639.5,540C 657.971,518.448 669.638,493.615 674.5,465.5C 679.352,467.892 684.352,468.059 689.5,466C 702.582,455.684 710.416,442.184 713,425.5C 713.667,418.167 713.667,410.833 713,403.5C 707.673,388.415 697.839,384.248 683.5,391C 681.333,393.167 679.167,395.333 677,397.5C 673.727,403.712 670.727,410.046 668,416.5C 665.628,418.703 663.461,421.037 661.5,423.5C 656.796,426.047 651.796,426.88 646.5,426C 642.338,423.378 640.338,419.545 640.5,414.5C 640.334,405.161 640.5,395.827 641,386.5C 642.951,384.863 642.784,383.363 640.5,382C 640.847,380.431 641.014,378.598 641,376.5C 639.667,373.833 638.333,371.167 637,368.5C 636.31,367.262 635.81,367.262 635.5,368.5C 633.861,366.194 631.861,364.194 629.5,362.5C 626.213,358.041 622.713,353.708 619,349.5C 612.627,336.938 609.127,323.604 608.5,309.5C 609.556,298.947 607.722,288.947 603,279.5C 595.166,269.944 585.332,266.944 573.5,270.5C 572.194,271.912 571.36,273.579 571,275.5C 566.534,267.088 559.534,262.088 550,260.5C 533.287,254.752 516.787,255.252 500.5,262C 497.073,263.796 493.906,265.963 491,268.5C 490.561,295.57 478.727,315.736 455.5,329C 446.43,332.847 437.096,333.847 427.5,332C 413.025,328.94 401.358,321.606 392.5,310C 391.5,309.333 390.5,309.333 389.5,310C 375.748,325.073 368.748,342.907 368.5,363.5C 368.336,366.187 368.503,368.854 369,371.5C 370.741,370.242 372.574,369.242 374.5,368.5C 374.5,369.167 374.5,369.833 374.5,370.5C 372.976,371.174 371.642,372.174 370.5,373.5C 369.833,373.167 369.167,372.833 368.5,372.5C 367.833,370.167 367.167,367.833 366.5,365.5C 365.804,369.47 365.637,373.47 366,377.5C 365.667,376.833 365.333,376.167 365,375.5C 364.184,376.823 363.017,377.489 361.5,377.5C 363.805,361.671 366.972,346.004 371,330.5C 374.493,320.015 380.66,311.515 389.5,305C 390.833,304.333 392.167,304.333 393.5,305C 407.885,323.681 426.552,330.681 449.5,326C 472.363,316.465 484.196,299.299 485,274.5C 486.936,266.086 492.103,260.586 500.5,258C 526.032,248.699 549.698,252.199 571.5,268.5C 584.143,263.203 595.309,265.536 605,275.5C 606.667,278.833 608.333,282.167 610,285.5C 612.236,295.72 613.736,306.054 614.5,316.5 Z"/></g>
<g><path style="opacity:1" fill="#eb5f3c" d="M 676.5,510.5 C 682.535,516.848 689.869,519.181 698.5,517.5C 699.622,519.288 699.789,521.288 699,523.5C 697.217,529.067 694.883,534.401 692,539.5C 685.281,549.225 677.448,558.058 668.5,566C 637.278,587.779 603.611,605.113 567.5,618C 547.581,625.919 526.914,629.752 505.5,629.5C 487.825,630.081 471.158,626.248 455.5,618C 434.769,607.769 420.102,591.936 411.5,570.5C 411.833,570.167 412.167,569.833 412.5,569.5C 420.343,573.922 428.343,578.088 436.5,582C 444.912,594.403 456.245,603.07 470.5,608C 489.178,613.626 508.178,614.959 527.5,612C 567.876,604.64 604.876,589.307 638.5,566C 657.271,551.721 669.937,533.221 676.5,510.5 Z"/></g>
<g><path style="opacity:1" fill="#ec603c" d="M 708.5,841.5 C 703.833,840.833 699.167,840.167 694.5,839.5C 697.888,832.503 700.388,825.17 702,817.5C 704.762,790.696 694.929,770.029 672.5,755.5C 700.644,744.833 727.978,746.666 754.5,761C 756.441,761.743 758.274,761.576 760,760.5C 761.041,757.364 760.207,754.864 757.5,753C 737.39,740.377 715.723,736.377 692.5,741C 708.505,732.109 725.505,726.443 743.5,724C 719.424,720.025 698.59,726.525 681,743.5C 686.296,700.741 704.463,664.574 735.5,635C 743.717,628.225 753.051,623.558 763.5,621C 765.303,620.363 766.636,619.197 767.5,617.5C 764.894,616.348 762.227,616.182 759.5,617C 746.618,621.105 735.284,627.772 725.5,637C 700.321,664.183 683.655,696.017 675.5,732.5C 673.302,719.929 671.969,707.263 671.5,694.5C 671.831,685.808 671.498,677.141 670.5,668.5C 669.893,668.624 669.56,668.957 669.5,669.5C 666.611,679.617 665.278,689.95 665.5,700.5C 666.718,715.183 667.885,729.85 669,744.5C 662.894,732.622 657.061,720.622 651.5,708.5C 650.607,713.9 651.107,719.233 653,724.5C 656.073,733.276 659.073,741.942 662,750.5C 651.875,750.375 643.042,753.709 635.5,760.5C 629.256,757.542 622.923,754.876 616.5,752.5C 572.725,738.643 540.892,752.31 521,793.5C 518.984,798.988 518.151,804.655 518.5,810.5C 515.289,810.988 512.456,810.321 510,808.5C 495.786,752.647 480.786,696.981 465,641.5C 462.946,635.127 459.112,630.294 453.5,627C 424.159,626.295 394.825,625.461 365.5,624.5C 367.022,617.098 368.856,609.764 371,602.5C 371.667,600.5 371.667,598.5 371,596.5C 366.101,605.13 361.601,613.964 357.5,623C 347.483,623.832 337.483,623.666 327.5,622.5C 344.341,597.658 364.341,575.658 387.5,556.5C 389.068,555.527 390.735,555.36 392.5,556C 397.362,559.695 402.362,563.195 407.5,566.5C 409.89,583.775 417.89,597.942 431.5,609C 460.067,631.559 492.4,639.892 528.5,634C 565.395,626.145 600.395,613.145 633.5,595C 656.892,583.606 676.725,567.773 693,547.5C 700.586,537.93 703.753,527.263 702.5,515.5C 702.5,513.833 702.5,512.167 702.5,510.5C 721.87,515.374 733.704,527.707 738,547.5C 738.667,552.5 738.667,557.5 738,562.5C 737.115,565 735.948,567.333 734.5,569.5C 731.768,567.454 728.768,566.62 725.5,567C 720.833,571 716.167,575 711.5,579C 697.167,588 682.833,597 668.5,606C 674.327,605.172 679.993,603.505 685.5,601C 699.141,593.6 712.641,586.1 726,578.5C 742.982,584.133 757.315,593.799 769,607.5C 797.011,639.542 813.678,676.875 819,719.5C 822.738,742.071 823.405,764.738 821,787.5C 818.646,814.184 804.48,830.684 778.5,837C 772.18,838.551 765.847,839.884 759.5,841C 742.503,841.5 725.503,841.667 708.5,841.5 Z"/></g>
<g><path style="opacity:1" fill="#2c3948" d="M 720.5,784.5 C 720.897,783.475 721.563,783.308 722.5,784C 730.258,791.234 736.591,799.401 741.5,808.5C 737.497,808.029 734.331,806.029 732,802.5C 727.393,796.944 723.56,790.944 720.5,784.5 Z"/></g>
<g><path style="opacity:1" fill="#2f3c48" d="M 745.5,741.5 C 751.705,740.289 758.038,740.456 764.5,742C 769.824,744.178 769.658,745.678 764,746.5C 757.558,745.74 751.392,744.073 745.5,741.5 Z"/></g>
<g><path style="opacity:1" fill="#46cacb" d="M 570.5,681.5 C 577.803,686.5 584.803,692 591.5,698C 593.527,700.177 594.861,702.677 595.5,705.5C 595.314,707.58 594.314,709.08 592.5,710C 584.635,715.364 576.635,720.53 568.5,725.5C 565.893,724.059 564.226,721.893 563.5,719C 569.841,713.831 576.174,708.665 582.5,703.5C 577.281,699.296 572.114,694.963 567,690.5C 566.873,687.084 568.04,684.084 570.5,681.5 Z"/></g>
<g><path style="opacity:1" fill="#44cdcb" d="M 554.5,659.5 C 557.696,659.899 560.696,660.899 563.5,662.5C 553.147,689.198 542.814,715.865 532.5,742.5C 528.344,742.422 525.011,740.755 522.5,737.5C 533.368,711.557 544.035,685.557 554.5,659.5 Z"/></g>
<g><path style="opacity:1" fill="#49c9c9" d="M 513.5,680.5 C 517.52,681.683 519.353,684.35 519,688.5C 514.318,693.015 509.818,697.681 505.5,702.5C 510.195,707.273 515.028,711.939 520,716.5C 519.901,720.372 518.401,723.705 515.5,726.5C 508.905,720.616 502.405,714.616 496,708.5C 494.445,706.557 493.278,704.39 492.5,702C 499.02,694.314 506.02,687.148 513.5,680.5 Z"/></g>
<g><path style="opacity:1" fill="#744b43" d="M 669.5,669.5 C 669.56,668.957 669.893,668.624 670.5,668.5C 671.498,677.141 671.831,685.808 671.5,694.5C 670.833,686.167 670.167,677.833 669.5,669.5 Z"/></g>
<g><path style="opacity:1" fill="#2d3c48" d="M 534.5,558.5 C 503.808,577.333 472.475,578.333 440.5,561.5C 432.524,557.023 426.357,550.689 422,542.5C 421.312,541.668 421.479,541.002 422.5,540.5C 444.426,560.972 470.426,569.139 500.5,565C 517.195,562.317 532.195,555.817 545.5,545.5C 545.833,545.667 546.167,545.833 546.5,546C 542.705,550.39 538.705,554.557 534.5,558.5 Z"/></g>
<g><path style="opacity:1" fill="#f28550" d="M 414.5,558.5 C 422.898,561.967 431.564,562.967 440.5,561.5C 472.475,578.333 503.808,577.333 534.5,558.5C 528.714,566.125 522.714,573.625 516.5,581C 570.074,581.299 612.241,559.799 643,516.5C 660.973,487.855 667.14,456.855 661.5,423.5C 663.461,421.037 665.628,418.703 668,416.5C 670.727,410.046 673.727,403.712 677,397.5C 679.167,395.333 681.333,393.167 683.5,391C 697.839,384.248 707.673,388.415 713,403.5C 713.667,410.833 713.667,418.167 713,425.5C 710.416,442.184 702.582,455.684 689.5,466C 684.352,468.059 679.352,467.892 674.5,465.5C 669.638,493.615 657.971,518.448 639.5,540C 641.279,539.956 642.945,539.289 644.5,538C 651.407,531.764 657.573,524.931 663,517.5C 661.963,522.272 660.296,526.939 658,531.5C 652.254,539.917 645.754,547.75 638.5,555C 618.607,570.455 596.941,583.122 573.5,593C 544.825,604.705 515.159,608.371 484.5,604C 470.832,601.343 459.499,595.51 450.5,586.5C 471.12,594.422 492.453,597.922 514.5,597C 535.572,595.642 554.905,589.309 572.5,578C 558.473,582.446 544.139,586.112 529.5,589C 487.039,593.97 448.706,583.803 414.5,558.5 Z"/></g>
<g><path style="opacity:1" fill="#2c3945" d="M 691.5,399.5 C 694.518,399.335 697.518,399.502 700.5,400C 701.333,400.833 702.167,401.667 703,402.5C 704.949,408.14 704.949,413.807 703,419.5C 701.801,416.495 700.968,413.329 700.5,410C 699.755,405.902 697.421,404.235 693.5,405C 691.046,406.74 689.546,408.907 689,411.5C 696.629,417.557 698.629,425.223 695,434.5C 693.704,438.767 691.204,442.1 687.5,444.5C 687.167,444.167 686.833,443.833 686.5,443.5C 691.589,435.923 692.589,427.923 689.5,419.5C 687.647,418.24 685.814,418.24 684,419.5C 680.995,426.844 677.495,433.844 673.5,440.5C 671.579,423.343 677.579,409.676 691.5,399.5 Z"/></g>
<g><path style="opacity:1" fill="#f9b687" d="M 640.5,414.5 C 640.338,419.545 642.338,423.378 646.5,426C 651.796,426.88 656.796,426.047 661.5,423.5C 667.14,456.855 660.973,487.855 643,516.5C 612.241,559.799 570.074,581.299 516.5,581C 522.714,573.625 528.714,566.125 534.5,558.5C 538.705,554.557 542.705,550.39 546.5,546C 546.167,545.833 545.833,545.667 545.5,545.5C 532.195,555.817 517.195,562.317 500.5,565C 470.426,569.139 444.426,560.972 422.5,540.5C 421.479,541.002 421.312,541.668 422,542.5C 426.357,550.689 432.524,557.023 440.5,561.5C 431.564,562.967 422.898,561.967 414.5,558.5C 410.922,556.925 407.589,554.925 404.5,552.5C 370.956,529.074 355.289,496.74 357.5,455.5C 357.137,442.049 358.137,428.716 360.5,415.5C 363.113,420.727 365.78,426.06 368.5,431.5C 366.172,432.736 365.006,434.736 365,437.5C 363.271,463.445 375.104,474.278 400.5,470C 406.561,467.939 410.561,463.939 412.5,458C 419.543,456.323 426.543,454.489 433.5,452.5C 435.679,453.757 437.679,455.257 439.5,457C 452.231,461.946 465.397,465.113 479,466.5C 484.183,465.554 489.35,464.387 494.5,463C 501.208,462.711 507.875,462.045 514.5,461C 519.944,459.058 522.944,455.225 523.5,449.5C 533.744,453.418 544.411,455.251 555.5,455C 564.557,468.475 577.224,473.808 593.5,471C 609.467,466.732 618.467,456.399 620.5,440C 619.187,428.526 613.187,420.693 602.5,416.5C 604.948,407.005 605.948,397.338 605.5,387.5C 616.861,386.399 628.195,386.732 639.5,388.5C 639.174,397.349 639.507,406.016 640.5,414.5 Z"/></g>
<g><path style="opacity:1" fill="#f58a57" d="M 503.5,514.5 C 494.751,525.584 483.418,529.417 469.5,526C 465.703,524.459 464.036,521.959 464.5,518.5C 477.966,521.85 490.966,520.516 503.5,514.5 Z"/></g>
<g><path style="opacity:1" fill="#2b3d49" d="M 503.5,514.5 C 490.966,520.516 477.966,521.85 464.5,518.5C 459.008,516.238 454.341,512.738 450.5,508C 467.451,514.26 484.784,515.093 502.5,510.5C 503.5,510.833 504.5,511.167 505.5,511.5C 504.807,512.518 504.141,513.518 503.5,514.5 Z"/></g>
<g><path style="opacity:1" fill="#2c3d47" d="M 537.5,464.5 C 544.5,462.242 549.667,464.576 553,471.5C 554.297,477.378 552.464,478.711 547.5,475.5C 533.036,485.292 517.036,491.125 499.5,493C 478.726,496.267 458.393,494.6 438.5,488C 433.786,485.949 429.619,483.115 426,479.5C 419.898,482.733 418.231,481.066 421,474.5C 422.182,472.643 423.849,471.643 426,471.5C 436.94,480.042 449.44,484.875 463.5,486C 488.002,489.31 511.336,485.643 533.5,475C 536.909,472.966 539.909,470.466 542.5,467.5C 541.312,465.738 539.645,464.738 537.5,464.5 Z"/></g>
<g><path style="opacity:1" fill="#f58a60" d="M 602.5,416.5 C 613.187,420.693 619.187,428.526 620.5,440C 618.467,456.399 609.467,466.732 593.5,471C 577.224,473.808 564.557,468.475 555.5,455C 544.411,455.251 533.744,453.418 523.5,449.5C 522.944,455.225 519.944,459.058 514.5,461C 507.875,462.045 501.208,462.711 494.5,463C 489.35,464.387 484.183,465.554 479,466.5C 465.397,465.113 452.231,461.946 439.5,457C 437.679,455.257 435.679,453.757 433.5,452.5C 426.543,454.489 419.543,456.323 412.5,458C 410.561,463.939 406.561,467.939 400.5,470C 375.104,474.278 363.271,463.445 365,437.5C 365.006,434.736 366.172,432.736 368.5,431.5C 379.996,447.621 395.663,454.121 415.5,451C 421.262,450.31 426.929,449.143 432.5,447.5C 435.353,451.513 439.019,454.68 443.5,457C 453.128,457.325 462.628,458.492 472,460.5C 485.139,458.577 498.305,457.077 511.5,456C 516.994,453.168 520.161,448.668 521,442.5C 529.568,447.099 538.735,449.099 548.5,448.5C 569.775,449.442 586.609,441.442 599,424.5C 600.456,421.924 601.623,419.258 602.5,416.5 Z"/></g>
<g><path style="opacity:1" fill="#2a3c47" d="M 630.5,374.5 C 632.838,376.04 635.505,376.706 638.5,376.5C 638.06,373.62 637.06,370.954 635.5,368.5C 635.81,367.262 636.31,367.262 637,368.5C 638.333,371.167 639.667,373.833 641,376.5C 641.014,378.598 640.847,380.431 640.5,382C 642.784,383.363 642.951,384.863 641,386.5C 640.5,395.827 640.334,405.161 640.5,414.5C 639.507,406.016 639.174,397.349 639.5,388.5C 628.195,386.732 616.861,386.399 605.5,387.5C 605.948,397.338 604.948,407.005 602.5,416.5C 601.623,419.258 600.456,421.924 599,424.5C 586.609,441.442 569.775,449.442 548.5,448.5C 538.735,449.099 529.568,447.099 521,442.5C 520.161,448.668 516.994,453.168 511.5,456C 498.305,457.077 485.139,458.577 472,460.5C 462.628,458.492 453.128,457.325 443.5,457C 439.019,454.68 435.353,451.513 432.5,447.5C 426.929,449.143 421.262,450.31 415.5,451C 395.663,454.121 379.996,447.621 368.5,431.5C 365.78,426.06 363.113,420.727 360.5,415.5C 361.751,413.78 363.251,413.447 365,414.5C 363.928,411.824 364.595,409.491 367,407.5C 367.174,402.649 367.674,397.982 368.5,393.5C 367.399,404.583 369.399,414.916 374.5,424.5C 382.819,440.158 395.819,446.492 413.5,443.5C 420.317,442.462 426.984,440.796 433.5,438.5C 434.762,435.885 435.928,433.218 437,430.5C 440.613,427.377 443.946,424.044 447,420.5C 453.584,406.369 452.917,392.702 445,379.5C 438.059,372.401 429.559,368.567 419.5,368C 404.638,365.973 390.972,368.973 378.5,377C 375.217,379.772 372.55,382.939 370.5,386.5C 368.649,385.134 368.316,383.467 369.5,381.5C 372.272,378.306 375.272,375.306 378.5,372.5C 377.051,371.828 375.718,371.161 374.5,370.5C 374.5,369.833 374.5,369.167 374.5,368.5C 393.802,357.82 414.135,355.654 435.5,362C 444.852,365.689 452.019,371.856 457,380.5C 469.347,375.584 481.847,375.25 494.5,379.5C 498.873,374.623 503.54,369.789 508.5,365C 521.501,357.042 535.668,353.542 551,354.5C 569.887,353.794 586.387,359.628 600.5,372C 610.504,372.864 620.504,373.697 630.5,374.5 Z"/></g>
<g><path style="opacity:1" fill="#f7a171" d="M 510.5,445.5 C 509.657,447.173 508.324,448.34 506.5,449C 495.463,449.846 484.463,451.013 473.5,452.5C 464.488,451.441 455.488,450.274 446.5,449C 440.883,445.135 440.049,440.302 444,434.5C 445.039,433.29 446.206,432.29 447.5,431.5C 448.802,432.807 450.135,432.807 451.5,431.5C 453.595,433.589 455.428,433.589 457,431.5C 458,431.833 459,432.167 460,432.5C 463.221,430.407 466.721,428.74 470.5,427.5C 471.333,428.5 472.167,429.5 473,430.5C 473.333,429.833 473.667,429.167 474,428.5C 476,428.5 478,428.5 480,428.5C 482.629,428.928 484.962,429.928 487,431.5C 490.292,427.19 491.626,427.523 491,432.5C 492.395,431.185 493.395,431.519 494,433.5C 496.608,431.818 499.275,431.152 502,431.5C 507.522,434.524 510.355,439.191 510.5,445.5 Z"/></g>
<g><path style="opacity:1" fill="#f38e64" d="M 413.5,443.5 C 395.819,446.492 382.819,440.158 374.5,424.5C 387.372,415.298 398.872,416.965 409,429.5C 412.203,433.608 413.703,438.275 413.5,443.5 Z"/></g>
<g><path style="opacity:1" fill="#f8ab7c" d="M 493.5,398.5 C 493.985,414.469 500.152,427.803 512,438.5C 512.826,441.212 512.326,443.545 510.5,445.5C 510.355,439.191 507.522,434.524 502,431.5C 499.275,431.152 496.608,431.818 494,433.5C 493.395,431.519 492.395,431.185 491,432.5C 491.626,427.523 490.292,427.19 487,431.5C 484.962,429.928 482.629,428.928 480,428.5C 478,428.5 476,428.5 474,428.5C 473.667,429.167 473.333,429.833 473,430.5C 472.167,429.5 471.333,428.5 470.5,427.5C 466.721,428.74 463.221,430.407 460,432.5C 459,432.167 458,431.833 457,431.5C 455.428,433.589 453.595,433.589 451.5,431.5C 450.135,432.807 448.802,432.807 447.5,431.5C 457.356,421.607 461.689,409.607 460.5,395.5C 467.45,394.407 474.45,394.24 481.5,395C 485.263,395.92 488.763,397.42 492,399.5C 492.383,398.944 492.883,398.611 493.5,398.5 Z"/></g>
<g><path style="opacity:1" fill="#f48a62" d="M 592.5,415.5 C 585.401,433.401 572.068,441.735 552.5,440.5C 555.63,425.871 564.63,417.038 579.5,414C 583.984,413.269 588.318,413.769 592.5,415.5 Z"/></g>
<g><path style="opacity:1" fill="#f28957" d="M 493.5,398.5 C 492.883,398.611 492.383,398.944 492,399.5C 488.763,397.42 485.263,395.92 481.5,395C 474.45,394.24 467.45,394.407 460.5,395.5C 460.5,393.167 460.5,390.833 460.5,388.5C 471.189,385.741 481.856,385.908 492.5,389C 493.428,389.388 494.095,390.055 494.5,391C 493.678,393.434 493.344,395.934 493.5,398.5 Z"/></g>
<g><path style="opacity:1" fill="#f8b687" d="M 592.5,415.5 C 588.318,413.769 583.984,413.269 579.5,414C 564.63,417.038 555.63,425.871 552.5,440.5C 534.748,441.369 520.248,435.036 509,421.5C 500.851,407.292 500.517,392.959 508,378.5C 514.402,370.209 522.902,365.376 533.5,364C 550.636,360.7 566.969,363.034 582.5,371C 594.179,380.029 598.345,391.862 595,406.5C 594.594,409.742 593.761,412.742 592.5,415.5 Z"/></g>
<g><path style="opacity:1" fill="#263b48" d="M 539.5,380.5 C 550.38,378.264 557.547,382.264 561,392.5C 563.302,401.671 561.135,409.504 554.5,416C 542.773,421.051 534.939,417.551 531,405.5C 528.229,395.083 531.062,386.749 539.5,380.5 Z"/></g>
<g><path style="opacity:1" fill="#f8b687" d="M 413.5,443.5 C 413.703,438.275 412.203,433.608 409,429.5C 398.872,416.965 387.372,415.298 374.5,424.5C 369.399,414.916 367.399,404.583 368.5,393.5C 368.767,391.035 369.434,388.701 370.5,386.5C 372.55,382.939 375.217,379.772 378.5,377C 390.972,368.973 404.638,365.973 419.5,368C 429.559,368.567 438.059,372.401 445,379.5C 452.917,392.702 453.584,406.369 447,420.5C 443.946,424.044 440.613,427.377 437,430.5C 435.928,433.218 434.762,435.885 433.5,438.5C 426.984,440.796 420.317,442.462 413.5,443.5 Z"/></g>
<g><path style="opacity:1" fill="#253b47" d="M 415.5,384.5 C 424.364,383.68 430.53,387.347 434,395.5C 436.306,404.71 434.139,412.544 427.5,419C 416.221,423.779 408.721,420.279 405,408.5C 402.28,397.618 405.78,389.618 415.5,384.5 Z"/></g>
<g><path style="opacity:1" fill="#ee8d5b" d="M 629.5,362.5 C 631.861,364.194 633.861,366.194 635.5,368.5C 637.06,370.954 638.06,373.62 638.5,376.5C 635.505,376.706 632.838,376.04 630.5,374.5C 630.167,370.5 629.833,366.5 629.5,362.5 Z"/></g>
<g><path style="opacity:1" fill="#f2844f" d="M 608.5,309.5 C 607.21,308.942 606.377,307.942 606,306.5C 604.865,299.095 602.532,292.095 599,285.5C 591.239,277.133 581.905,274.466 571,277.5C 561.544,271.858 551.377,268.025 540.5,266C 525.256,264.769 511.422,268.603 499,277.5C 495.673,292.825 490.006,307.159 482,320.5C 471.665,333.417 458.165,340.084 441.5,340.5C 436.766,336.97 431.433,334.803 425.5,334C 418.139,333.317 410.805,333.483 403.5,334.5C 399.646,331.807 396.646,328.307 394.5,324C 393.167,323.333 391.833,323.333 390.5,324C 379.833,335.453 372.499,348.62 368.5,363.5C 368.748,342.907 375.748,325.073 389.5,310C 390.5,309.333 391.5,309.333 392.5,310C 401.358,321.606 413.025,328.94 427.5,332C 437.096,333.847 446.43,332.847 455.5,329C 478.727,315.736 490.561,295.57 491,268.5C 493.906,265.963 497.073,263.796 500.5,262C 516.787,255.252 533.287,254.752 550,260.5C 559.534,262.088 566.534,267.088 571,275.5C 571.36,273.579 572.194,271.912 573.5,270.5C 585.332,266.944 595.166,269.944 603,279.5C 607.722,288.947 609.556,298.947 608.5,309.5 Z"/></g>
<g><path style="opacity:1" fill="#d35233" d="M 665.5,301.5 C 665.815,303.226 665.981,304.893 666,306.5C 659.747,298.331 654.247,289.665 649.5,280.5C 647.302,296.208 650.969,310.375 660.5,323C 650.238,315.997 643.738,306.164 641,293.5C 638.443,307.799 642.277,319.965 652.5,330C 644.918,327.101 639.084,321.934 635,314.5C 632.586,307.681 630.919,300.681 630,293.5C 626.705,309.945 630.205,324.779 640.5,338C 640.167,338.167 639.833,338.333 639.5,338.5C 632.494,332.634 628.16,325.134 626.5,316C 624.393,307.631 623.393,299.131 623.5,290.5C 625.353,271.372 617.687,257.539 600.5,249C 618.897,251.367 632.23,260.867 640.5,277.5C 640.432,261.203 633.432,248.703 619.5,240C 615.581,238.138 611.581,236.471 607.5,235C 623.395,237.221 635.229,245.388 643,259.5C 649.751,274.007 657.251,288.007 665.5,301.5 Z"/></g>
<g><path style="opacity:1" fill="#f9b687" d="M 608.5,309.5 C 609.127,323.604 612.627,336.938 619,349.5C 622.713,353.708 626.213,358.041 629.5,362.5C 629.833,366.5 630.167,370.5 630.5,374.5C 620.504,373.697 610.504,372.864 600.5,372C 586.387,359.628 569.887,353.794 551,354.5C 535.668,353.542 521.501,357.042 508.5,365C 503.54,369.789 498.873,374.623 494.5,379.5C 481.847,375.25 469.347,375.584 457,380.5C 452.019,371.856 444.852,365.689 435.5,362C 414.135,355.654 393.802,357.82 374.5,368.5C 372.574,369.242 370.741,370.242 369,371.5C 368.503,368.854 368.336,366.187 368.5,363.5C 372.499,348.62 379.833,335.453 390.5,324C 391.833,323.333 393.167,323.333 394.5,324C 396.646,328.307 399.646,331.807 403.5,334.5C 394.403,337.311 386.57,342.311 380,349.5C 378.412,352.174 377.245,355.008 376.5,358C 376.745,361.255 378.412,362.588 381.5,362C 395.596,352.976 410.929,349.643 427.5,352C 433.395,354.023 439.395,355.523 445.5,356.5C 446.381,350.523 445.047,345.189 441.5,340.5C 458.165,340.084 471.665,333.417 482,320.5C 490.006,307.159 495.673,292.825 499,277.5C 511.422,268.603 525.256,264.769 540.5,266C 551.377,268.025 561.544,271.858 571,277.5C 581.905,274.466 591.239,277.133 599,285.5C 602.532,292.095 604.865,299.095 606,306.5C 606.377,307.942 607.21,308.942 608.5,309.5 Z"/></g>
<g><path style="opacity:1" fill="#1f333d" d="M 446.5,343.5 C 451.487,347.543 452.653,352.543 450,358.5C 449.885,353.223 448.719,348.223 446.5,343.5 Z"/></g>
<g><path style="opacity:1" fill="#374148" d="M 500.5,340.5 C 501.809,342.571 502.475,345.071 502.5,348C 501.851,357.583 500.518,357.417 498.5,347.5C 498.442,344.922 499.109,342.589 500.5,340.5 Z"/></g>
<g><path style="opacity:1" fill="#644e45" d="M 510.5,337.5 C 508.285,341.58 506.951,345.913 506.5,350.5C 504.298,343.768 505.465,337.768 510,332.5C 510.494,334.134 510.66,335.801 510.5,337.5 Z"/></g>
<g><path style="opacity:1" fill="#973821" d="M 441.5,340.5 C 445.047,345.189 446.381,350.523 445.5,356.5C 439.395,355.523 433.395,354.023 427.5,352C 410.929,349.643 395.596,352.976 381.5,362C 378.412,362.588 376.745,361.255 376.5,358C 377.245,355.008 378.412,352.174 380,349.5C 386.57,342.311 394.403,337.311 403.5,334.5C 410.805,333.483 418.139,333.317 425.5,334C 431.433,334.803 436.766,336.97 441.5,340.5 Z"/></g>
<g><path style="opacity:1" fill="#963821" d="M 506.5,350.5 C 506.951,345.913 508.285,341.58 510.5,337.5C 523.137,322.349 539.137,317.515 558.5,323C 574.472,325.386 586.306,333.552 594,347.5C 594.667,350.833 594.667,354.167 594,357.5C 593.586,357.957 593.086,358.291 592.5,358.5C 574.993,346.505 555.66,342.005 534.5,345C 525.985,346.838 517.818,349.672 510,353.5C 508.358,353.022 507.191,352.022 506.5,350.5 Z"/></g>
<g><path style="opacity:1" fill="#d05235" d="M 686.5,249.5 C 698.341,255.676 706.674,265.009 711.5,277.5C 711.631,278.239 711.464,278.906 711,279.5C 703.733,268.736 695.566,258.736 686.5,249.5 Z"/></g>
<g><path style="opacity:1" fill="#d25132" d="M 363.5,230.5 C 363.938,230.435 364.272,230.601 364.5,231C 360.454,243.474 362.287,254.974 370,265.5C 381.138,274.501 393.972,278.668 408.5,278C 399.288,280.29 389.955,280.956 380.5,280C 365.849,275.369 358.183,265.369 357.5,250C 358.156,243.54 359.823,237.373 362.5,231.5C 362.5,230.833 362.833,230.5 363.5,230.5 Z"/></g>
<g><path style="opacity:1" fill="#943720" d="M 569.5,177.5 C 574.609,182.952 580.276,187.619 586.5,191.5C 581.106,191.122 575.773,190.288 570.5,189C 566.833,188.333 563.167,188.333 559.5,189C 561.001,190.252 562.668,191.252 564.5,192C 605.484,200.348 637.984,221.514 662,255.5C 671.786,269.403 680.286,284.07 687.5,299.5C 684.499,302.274 680.999,304.274 677,305.5C 676.075,304.953 675.242,304.287 674.5,303.5C 675.189,301.556 675.689,299.556 676,297.5C 676.219,298.938 676.719,300.271 677.5,301.5C 677.338,299.369 678.671,298.369 681.5,298.5C 681.625,295.107 679.958,293.774 676.5,294.5C 672.657,293.849 671.157,295.182 672,298.5C 671.333,297.167 670.667,297.167 670,298.5C 669.077,297.241 668.243,295.908 667.5,294.5C 666.28,294.887 665.613,295.72 665.5,297C 666.58,298.455 666.58,299.955 665.5,301.5C 657.251,288.007 649.751,274.007 643,259.5C 635.229,245.388 623.395,237.221 607.5,235C 611.581,236.471 615.581,238.138 619.5,240C 633.432,248.703 640.432,261.203 640.5,277.5C 632.23,260.867 618.897,251.367 600.5,249C 617.687,257.539 625.353,271.372 623.5,290.5C 622.527,291.791 621.527,291.791 620.5,290.5C 619.354,291.145 618.354,291.978 617.5,293C 617.409,295.303 618.743,296.97 621.5,298C 620.833,298.333 620.167,298.667 619.5,299C 620.973,299.71 621.64,300.876 621.5,302.5C 616.941,302.879 615.607,305.213 617.5,309.5C 616.088,311.76 615.088,314.093 614.5,316.5C 613.736,306.054 612.236,295.72 610,285.5C 608.333,282.167 606.667,278.833 605,275.5C 595.309,265.536 584.143,263.203 571.5,268.5C 549.698,252.199 526.032,248.699 500.5,258C 492.103,260.586 486.936,266.086 485,274.5C 484.196,299.299 472.363,316.465 449.5,326C 426.552,330.681 407.885,323.681 393.5,305C 392.167,304.333 390.833,304.333 389.5,305C 380.66,311.515 374.493,320.015 371,330.5C 366.972,346.004 363.805,361.671 361.5,377.5C 358.249,385.843 356.582,394.509 356.5,403.5C 344.331,398.549 336.831,389.549 334,376.5C 332.908,370.218 332.242,363.884 332,357.5C 327.717,353.892 323.383,350.226 319,346.5C 314.99,340.759 313.656,334.425 315,327.5C 318.198,320.982 321.365,314.482 324.5,308C 323.146,304.123 321.646,300.29 320,296.5C 318.699,290.078 319.699,284.078 323,278.5C 323.711,276.101 323.544,273.768 322.5,271.5C 324.031,270.579 325.365,270.912 326.5,272.5C 325.475,272.897 325.308,273.563 326,274.5C 331.09,281.624 337.923,285.457 346.5,286C 345.547,287.955 344.213,289.622 342.5,291C 338.035,291.734 333.701,291.234 329.5,289.5C 328.833,289.833 328.167,290.167 327.5,290.5C 335.481,297.423 344.147,298.256 353.5,293C 356.979,290.688 359.979,287.854 362.5,284.5C 356.276,282.28 352.61,277.947 351.5,271.5C 347.118,272.346 342.785,273.346 338.5,274.5C 335.263,274.322 332.263,273.655 329.5,272.5C 339.109,272.067 344.942,267.067 347,257.5C 347.333,252.167 347.667,246.833 348,241.5C 352.282,237.283 357.116,233.95 362.5,231.5C 359.823,237.373 358.156,243.54 357.5,250C 358.183,265.369 365.849,275.369 380.5,280C 389.955,280.956 399.288,280.29 408.5,278C 393.972,278.668 381.138,274.501 370,265.5C 362.287,254.974 360.454,243.474 364.5,231C 364.272,230.601 363.938,230.435 363.5,230.5C 364.945,228.937 366.611,227.604 368.5,226.5C 364.175,242.676 369.509,253.843 384.5,260C 373.553,252.272 369.053,241.772 371,228.5C 378.74,244.189 390.906,249.355 407.5,244C 415.995,239.836 423.661,234.502 430.5,228C 431.448,227.517 432.448,227.351 433.5,227.5C 429.213,236.963 422.547,244.463 413.5,250C 407.282,252.942 400.949,255.609 394.5,258C 410.58,263.1 425.58,260.767 439.5,251C 444.7,246.135 449.533,240.968 454,235.5C 450.087,257.485 438.587,274.319 419.5,286C 413.383,288.373 407.05,289.706 400.5,290C 401.623,291.044 402.956,291.71 404.5,292C 408.833,292.667 413.167,292.667 417.5,292C 426.391,288.888 434.724,284.721 442.5,279.5C 442.833,279.833 443.167,280.167 443.5,280.5C 435.875,291.76 425.208,298.094 411.5,299.5C 418.719,300.826 425.719,299.992 432.5,297C 440.184,292.986 447.017,287.819 453,281.5C 459.169,272.5 464.836,263.166 470,253.5C 472.391,250.403 475.224,248.237 478.5,247C 473.452,261.472 467.619,275.639 461,289.5C 456.591,297.244 450.758,303.744 443.5,309C 445.598,308.968 447.598,308.301 449.5,307C 456.81,300.028 462.977,292.195 468,283.5C 472.687,270.461 478.687,258.128 486,246.5C 505.473,225.286 528.307,220.453 554.5,232C 559.129,234.905 563.296,238.405 567,242.5C 567.167,242.167 567.333,241.833 567.5,241.5C 557.443,226.967 543.443,219.467 525.5,219C 516.5,218.333 507.5,218.333 498.5,219C 496.466,220.205 494.466,220.372 492.5,219.5C 500.082,214.471 508.415,211.304 517.5,210C 525.5,209.667 533.5,209.333 541.5,209C 523.789,203.619 505.789,202.286 487.5,205C 481.586,207.31 475.586,208.976 469.5,210C 485.068,198.089 502.735,192.255 522.5,192.5C 556.774,197.603 557.108,195.769 523.5,187C 512.535,185.088 501.535,183.421 490.5,182C 494.223,179.757 498.223,178.09 502.5,177C 520.316,175.73 537.316,178.897 553.5,186.5C 554.696,186.154 554.696,185.654 553.5,185C 534.043,173.575 513.043,168.908 490.5,171C 483.463,172.182 476.463,173.182 469.5,174C 483.214,166.031 498.047,162.531 514,163.5C 533.327,164.332 551.494,169.332 568.5,178.5C 569.107,178.376 569.44,178.043 569.5,177.5 Z"/></g>
<g><path style="opacity:1" fill="#d25638" d="M 341.5,332.5 C 342.168,339.048 343.001,345.715 344,352.5C 345.167,353.667 346.333,354.833 347.5,356C 343.248,355.432 340.414,352.932 339,348.5C 338.051,342.865 338.884,337.531 341.5,332.5 Z"/></g>
<g><path style="opacity:1" fill="#d55433" d="M 362.5,315.5 C 363.239,315.369 363.906,315.536 364.5,316C 360.978,320.438 356.645,323.938 351.5,326.5C 351.167,326.167 350.833,325.833 350.5,325.5C 354.227,321.767 358.227,318.434 362.5,315.5 Z"/></g>
<g><path style="opacity:1" fill="#ce512c" d="M 450.5,316.5 C 451.239,316.369 451.906,316.536 452.5,317C 445.835,322.722 438.168,324.888 429.5,323.5C 434.358,322.622 439.192,321.622 444,320.5C 446.634,319.774 448.801,318.441 450.5,316.5 Z"/></g>
<g><path style="opacity:1" fill="#d45435" d="M 326.5,272.5 C 327.5,272.5 328.5,272.5 329.5,272.5C 332.263,273.655 335.263,274.322 338.5,274.5C 342.785,273.346 347.118,272.346 351.5,271.5C 352.61,277.947 356.276,282.28 362.5,284.5C 359.979,287.854 356.979,290.688 353.5,293C 344.147,298.256 335.481,297.423 327.5,290.5C 328.167,290.167 328.833,289.833 329.5,289.5C 333.701,291.234 338.035,291.734 342.5,291C 344.213,289.622 345.547,287.955 346.5,286C 337.923,285.457 331.09,281.624 326,274.5C 325.308,273.563 325.475,272.897 326.5,272.5 Z"/></g>
<g><path style="opacity:1" fill="#923821" d="M 616.5,185.5 C 616.577,186.75 617.244,187.583 618.5,188C 633.619,192.124 646.452,199.958 657,211.5C 656.956,209.721 656.289,208.055 655,206.5C 651.227,203.236 648.06,199.57 645.5,195.5C 651.765,199.265 657.265,203.931 662,209.5C 666.923,219.014 671.59,228.68 676,238.5C 679.03,242.695 682.53,246.361 686.5,249.5C 695.566,258.736 703.733,268.736 711,279.5C 711.464,278.906 711.631,278.239 711.5,277.5C 713.129,279.858 714.295,282.524 715,285.5C 716.873,296.281 719.206,306.948 722,317.5C 726.529,324.019 732.695,328.185 740.5,330C 735.678,331.838 730.678,333.172 725.5,334C 722.892,338.153 723.059,342.32 726,346.5C 730.75,352.327 734.75,358.66 738,365.5C 739.996,373.561 739.663,381.561 737,389.5C 733.4,396.196 730.233,403.03 727.5,410C 733.683,432.786 727.516,451.286 709,465.5C 708.183,468.964 708.517,472.298 710,475.5C 713.117,479.454 716.95,482.454 721.5,484.5C 716.776,488.016 711.443,489.683 705.5,489.5C 698.757,489.062 692.424,487.562 686.5,485C 685.439,492.879 688.439,498.879 695.5,503C 688.777,506.209 682.11,506.042 675.5,502.5C 673.9,501.356 672.233,500.189 670.5,499C 673.991,490.695 676.991,482.195 679.5,473.5C 685.366,472.601 690.699,470.435 695.5,467C 707.845,455.48 715.345,441.314 718,424.5C 719.877,412.887 718.21,401.887 713,391.5C 699.713,377.964 686.713,378.298 674,392.5C 669.613,400.779 665.113,408.945 660.5,417C 658.112,418.861 655.446,420.194 652.5,421C 649.196,422.042 647.029,420.875 646,417.5C 644.284,407.356 644.118,397.19 645.5,387C 644.651,371.802 638.151,359.635 626,350.5C 619.472,340.082 615.639,328.749 614.5,316.5C 615.088,314.093 616.088,311.76 617.5,309.5C 615.607,305.213 616.941,302.879 621.5,302.5C 621.64,300.876 620.973,299.71 619.5,299C 620.167,298.667 620.833,298.333 621.5,298C 618.743,296.97 617.409,295.303 617.5,293C 618.354,291.978 619.354,291.145 620.5,290.5C 621.527,291.791 622.527,291.791 623.5,290.5C 623.393,299.131 624.393,307.631 626.5,316C 628.16,325.134 632.494,332.634 639.5,338.5C 639.833,338.333 640.167,338.167 640.5,338C 630.205,324.779 626.705,309.945 630,293.5C 630.919,300.681 632.586,307.681 635,314.5C 639.084,321.934 644.918,327.101 652.5,330C 642.277,319.965 638.443,307.799 641,293.5C 643.738,306.164 650.238,315.997 660.5,323C 650.969,310.375 647.302,296.208 649.5,280.5C 654.247,289.665 659.747,298.331 666,306.5C 665.981,304.893 665.815,303.226 665.5,301.5C 666.58,299.955 666.58,298.455 665.5,297C 665.613,295.72 666.28,294.887 667.5,294.5C 668.243,295.908 669.077,297.241 670,298.5C 670.667,297.167 671.333,297.167 672,298.5C 671.157,295.182 672.657,293.849 676.5,294.5C 679.958,293.774 681.625,295.107 681.5,298.5C 678.671,298.369 677.338,299.369 677.5,301.5C 676.719,300.271 676.219,298.938 676,297.5C 675.689,299.556 675.189,301.556 674.5,303.5C 675.242,304.287 676.075,304.953 677,305.5C 680.999,304.274 684.499,302.274 687.5,299.5C 694.069,310.541 698.069,322.541 699.5,335.5C 701.921,310.515 696.754,287.182 684,265.5C 666.194,236.359 642.028,214.193 611.5,199C 605.136,196.491 598.802,194.324 592.5,192.5C 597.699,190.07 603.032,187.903 608.5,186C 611.146,185.503 613.813,185.336 616.5,185.5 Z"/></g>
<g><path style="opacity:1" fill="#e95c38" d="M 586.5,191.5 C 588.565,191.517 590.565,191.85 592.5,192.5C 598.802,194.324 605.136,196.491 611.5,199C 642.028,214.193 666.194,236.359 684,265.5C 696.754,287.182 701.921,310.515 699.5,335.5C 698.069,322.541 694.069,310.541 687.5,299.5C 680.286,284.07 671.786,269.403 662,255.5C 637.984,221.514 605.484,200.348 564.5,192C 562.668,191.252 561.001,190.252 559.5,189C 563.167,188.333 566.833,188.333 570.5,189C 575.773,190.288 581.106,191.122 586.5,191.5 Z"/></g>
<g><path style="opacity:1" fill="#e3bd68" d="M 368.5,209.5 C 369.239,209.369 369.906,209.536 370.5,210C 362.683,216.983 355.016,224.15 347.5,231.5C 346.369,229.926 346.202,228.259 347,226.5C 352.242,218.308 359.409,212.641 368.5,209.5 Z"/></g>
<g><path style="opacity:1" fill="#d75231" d="M 616.5,185.5 C 627.151,186.05 636.817,189.383 645.5,195.5C 648.06,199.57 651.227,203.236 655,206.5C 656.289,208.055 656.956,209.721 657,211.5C 646.452,199.958 633.619,192.124 618.5,188C 617.244,187.583 616.577,186.75 616.5,185.5 Z"/></g>
<g><path style="opacity:1" fill="#d35232" d="M 569.5,177.5 C 569.44,178.043 569.107,178.376 568.5,178.5C 551.494,169.332 533.327,164.332 514,163.5C 498.047,162.531 483.214,166.031 469.5,174C 476.463,173.182 483.463,172.182 490.5,171C 513.043,168.908 534.043,173.575 553.5,185C 554.696,185.654 554.696,186.154 553.5,186.5C 537.316,178.897 520.316,175.73 502.5,177C 498.223,178.09 494.223,179.757 490.5,182C 501.535,183.421 512.535,185.088 523.5,187C 557.108,195.769 556.774,197.603 522.5,192.5C 502.735,192.255 485.068,198.089 469.5,210C 475.586,208.976 481.586,207.31 487.5,205C 505.789,202.286 523.789,203.619 541.5,209C 533.5,209.333 525.5,209.667 517.5,210C 508.415,211.304 500.082,214.471 492.5,219.5C 494.466,220.372 496.466,220.205 498.5,219C 507.5,218.333 516.5,218.333 525.5,219C 543.443,219.467 557.443,226.967 567.5,241.5C 567.333,241.833 567.167,242.167 567,242.5C 563.296,238.405 559.129,234.905 554.5,232C 528.307,220.453 505.473,225.286 486,246.5C 478.687,258.128 472.687,270.461 468,283.5C 462.977,292.195 456.81,300.028 449.5,307C 447.598,308.301 445.598,308.968 443.5,309C 450.758,303.744 456.591,297.244 461,289.5C 467.619,275.639 473.452,261.472 478.5,247C 475.224,248.237 472.391,250.403 470,253.5C 464.836,263.166 459.169,272.5 453,281.5C 447.017,287.819 440.184,292.986 432.5,297C 425.719,299.992 418.719,300.826 411.5,299.5C 425.208,298.094 435.875,291.76 443.5,280.5C 443.167,280.167 442.833,279.833 442.5,279.5C 434.724,284.721 426.391,288.888 417.5,292C 413.167,292.667 408.833,292.667 404.5,292C 402.956,291.71 401.623,291.044 400.5,290C 407.05,289.706 413.383,288.373 419.5,286C 438.587,274.319 450.087,257.485 454,235.5C 449.533,240.968 444.7,246.135 439.5,251C 425.58,260.767 410.58,263.1 394.5,258C 400.949,255.609 407.282,252.942 413.5,250C 422.547,244.463 429.213,236.963 433.5,227.5C 432.448,227.351 431.448,227.517 430.5,228C 423.661,234.502 415.995,239.836 407.5,244C 390.906,249.355 378.74,244.189 371,228.5C 369.053,241.772 373.553,252.272 384.5,260C 369.509,253.843 364.175,242.676 368.5,226.5C 381.29,218.21 391.957,207.71 400.5,195C 421.51,186.328 441.844,176.328 461.5,165C 499.988,148.221 535.988,152.387 569.5,177.5 Z"/></g>
<g><path style="opacity:1" fill="#963720" d="M 436.5,206.5 C 437.465,207.721 437.298,209.054 436,210.5C 427.517,221.334 416.683,228.5 403.5,232C 394.486,233.661 388.153,230.327 384.5,222C 384.833,221.5 385.167,221 385.5,220.5C 396.01,224.75 406.343,224.25 416.5,219C 423.399,215.059 430.066,210.892 436.5,206.5 Z"/></g>
<g><path style="opacity:1" fill="#9d371d" d="M 419.5,203.5 C 420.621,205.089 420.454,206.756 419,208.5C 414.135,215.521 407.635,217.854 399.5,215.5C 404.512,212.54 409.846,210.04 415.5,208C 417.041,206.629 418.375,205.129 419.5,203.5 Z"/></g>
<g><path style="opacity:1" fill="#98361f" d="M 459.5,195.5 C 461.924,195.192 464.257,195.526 466.5,196.5C 461.267,201.133 455.267,203.133 448.5,202.5C 451.96,199.68 455.627,197.347 459.5,195.5 Z"/></g>
<g><path style="opacity:1" fill="#f1814f" d="M 663.5,789.5 C 668.047,799.3 668.547,809.3 665,819.5C 657.944,832.276 647.11,837.443 632.5,835C 630.714,834.215 629.214,833.049 628,831.5C 627.097,827.195 625.263,823.361 622.5,820C 615.018,816.094 607.018,814.428 598.5,815C 601.038,811.567 604.371,809.4 608.5,808.5C 618.086,812.62 627.753,816.787 637.5,821C 640.167,821.667 642.833,821.667 645.5,821C 651.665,820.347 655.832,817.18 658,811.5C 658.959,799.55 655.793,788.884 648.5,779.5C 647.363,776.771 646.03,774.104 644.5,771.5C 645.002,770.479 645.668,770.312 646.5,771C 650,773.833 653.5,776.667 657,779.5C 659.44,782.728 661.606,786.061 663.5,789.5 Z"/></g>
<g><path style="opacity:1" fill="#35c3be" d="M 534.5,818.5 C 538.866,819.072 543.199,819.905 547.5,821C 539.507,821.5 531.507,821.666 523.5,821.5C 519.5,821.5 515.5,821.5 511.5,821.5C 511.5,820.5 511.5,819.5 511.5,818.5C 519.167,818.5 526.833,818.5 534.5,818.5 Z"/></g>
<g><path style="opacity:1" fill="#2a525c" d="M 534.5,818.5 C 526.833,818.5 519.167,818.5 511.5,818.5C 511.5,819.5 511.5,820.5 511.5,821.5C 515.5,821.5 519.5,821.5 523.5,821.5C 519.688,822.324 515.688,822.824 511.5,823C 515.002,825.011 515.002,826.344 511.5,827C 535.164,827.5 558.831,827.667 582.5,827.5C 557.997,828.167 533.33,828.833 508.5,829.5C 507.583,832.758 507.249,836.091 507.5,839.5C 506.626,835.543 505.293,832.043 503.5,829C 506.425,826.923 508.258,824.09 509,820.5C 509.333,820.833 509.667,821.167 510,821.5C 510.49,820.207 510.657,818.873 510.5,817.5C 518.684,817.174 526.684,817.508 534.5,818.5 Z"/></g>
<g><path style="opacity:1" fill="#3ccecd" d="M 507.5,839.5 C 507.249,836.091 507.583,832.758 508.5,829.5C 533.33,828.833 557.997,828.167 582.5,827.5C 590.35,827.577 598.183,827.244 606,826.5C 617.845,825.996 621.179,830.996 616,841.5C 614.581,842.46 613.081,843.293 611.5,844C 576.858,845.832 542.191,846.665 507.5,846.5C 507.5,844.167 507.5,841.833 507.5,839.5 Z"/></g>
<g><path style="opacity:1" fill="#359ea0" d="M 304.5,833.5 C 290.833,833.5 277.167,833.5 263.5,833.5C 263.5,836.167 263.5,838.833 263.5,841.5C 262.523,838.713 262.19,835.713 262.5,832.5C 276.677,832.171 290.677,832.504 304.5,833.5 Z"/></g>
<g><path style="opacity:1" fill="#3acccc" d="M 304.5,833.5 C 369.507,834.218 434.507,835.218 499.5,836.5C 499.5,840.167 499.5,843.833 499.5,847.5C 425.155,847.096 350.821,845.93 276.5,844C 271.924,843.728 267.591,842.895 263.5,841.5C 263.5,838.833 263.5,836.167 263.5,833.5C 277.167,833.5 290.833,833.5 304.5,833.5 Z"/></g>
<g><path style="opacity:1" fill="#273d49" d="M 517.5,834.5 C 528.172,834.333 538.839,834.5 549.5,835C 550.423,837.041 550.756,839.208 550.5,841.5C 539.5,841.5 528.5,841.5 517.5,841.5C 517.5,839.167 517.5,836.833 517.5,834.5 Z"/></g>
<g><path style="opacity:1" fill="#273b48" d="M 574.5,834.5 C 581.508,834.334 588.508,834.5 595.5,835C 597.155,836.444 597.822,838.278 597.5,840.5C 587.833,840.5 578.167,840.5 568.5,840.5C 568.343,839.127 568.51,837.793 569,836.5C 570.948,835.891 572.782,835.224 574.5,834.5 Z"/></g>
<g><path style="opacity:1" fill="#a6543a" d="M 693.5,839.5 C 693.833,839.5 694.167,839.5 694.5,839.5C 699.167,840.167 703.833,840.833 708.5,841.5C 703.056,842.108 698.056,841.442 693.5,839.5 Z"/></g>
<g><path style="opacity:1" fill="#ececee" d="M 966.5,943.5 C 967.376,943.369 968.043,943.702 968.5,944.5C 972.507,955.841 980.174,963.507 991.5,967.5C 979.808,971.859 971.808,979.859 967.5,991.5C 963.148,979.815 955.148,971.815 943.5,967.5C 955.28,963.387 962.947,955.387 966.5,943.5 Z"/></g>
</svg>
